<svg xmlns="http://www.w3.org/2000/svg" xmlns:xlink="http://www.w3.org/1999/xlink" viewBox="0,0,256,256" width="192px" height="192px"><g fill="none" fill-rule="nonzero" stroke="none" stroke-width="none" stroke-linecap="none" stroke-linejoin="none" stroke-miterlimit="10" stroke-dasharray="" stroke-dashoffset="0" font-family="none" font-weight="none" font-size="none" text-anchor="none" style="mix-blend-mode: normal"><g transform="scale(5.33333,5.33333)"><path d="M39.995,43.833h-23.99c-2.12,0 -3.838,-1.719 -3.838,-3.838v-23.99c0,-2.12 1.719,-3.838 3.838,-3.838h23.99c2.12,0 3.838,1.719 3.838,3.838v23.99c0,2.12 -1.718,3.838 -3.838,3.838z" fill="#72c4ff" stroke="none" stroke-width="1" stroke-linecap="butt" stroke-linejoin="miter"></path><path d="M27.723,40.5h-16.223c-2.209,0 -4,-1.791 -4,-4v-25c0,-2.209 1.791,-4 4,-4h2.5" fill="none" stroke="#18193f" stroke-width="3" stroke-linecap="round" stroke-linejoin="round"></path><path d="M21.298,7.5h15.202c2.209,0 4,1.791 4,4v25c0,2.209 -1.791,4 -4,4h-2.181" fill="none" stroke="#18193f" stroke-width="3" stroke-linecap="round" stroke-linejoin="round"></path><path d="M29,12c-3.859,0 -7,3.141 -7,7c0,0.207 0.013,0.411 0.031,0.614l-3.243,5.401c-0.096,-0.005 -0.191,-0.015 -0.288,-0.015c-1.721,0 -3.259,0.796 -4.268,2.038l-5.815,-2.492c-0.758,-0.326 -1.642,0.026 -1.97,0.788c-0.326,0.761 0.026,1.643 0.788,1.97l5.815,2.492c-0.029,0.231 -0.05,0.465 -0.05,0.704c0,3.033 2.467,5.5 5.5,5.5c3.033,0 5.5,-2.467 5.5,-5.5c0,-0.266 -0.025,-0.525 -0.062,-0.78l4.795,-3.733c0.089,0.003 0.177,0.013 0.267,0.013c3.859,0 7,-3.141 7,-7c0,-3.859 -3.141,-7 -7,-7zM18.5,34c-1.882,0 -3.412,-1.497 -3.486,-3.362l2.895,1.241c0.193,0.082 0.393,0.121 0.591,0.121c0.582,0 1.135,-0.341 1.379,-0.91c0.326,-0.761 -0.026,-1.643 -0.788,-1.97l-2.89,-1.239c0.617,-0.541 1.415,-0.881 2.299,-0.881c1.93,0 3.5,1.57 3.5,3.5c0,1.93 -1.57,3.5 -3.5,3.5zM29,23c-2.206,0 -4,-1.794 -4,-4c0,-2.206 1.794,-4 4,-4c2.206,0 4,1.794 4,4c0,2.206 -1.794,4 -4,4z" fill="#18193f" stroke="none" stroke-width="1" stroke-linecap="butt" stroke-linejoin="miter"></path><circle cx="29" cy="19" r="2" fill="#18193f" stroke="none" stroke-width="1" stroke-linecap="butt" stroke-linejoin="miter"></circle></g></g></svg>